<?xml version="1.0" encoding="utf-8"?>
<!-- Generator: Adobe Illustrator 16.0.2, SVG Export Plug-In . SVG Version: 6.00 Build 0)  -->
<!DOCTYPE svg PUBLIC "-//W3C//DTD SVG 1.1//EN" "http://www.w3.org/Graphics/SVG/1.1/DTD/svg11.dtd">
<svg version="1.1" id="圖層_1" xmlns="http://www.w3.org/2000/svg" xmlns:xlink="http://www.w3.org/1999/xlink" x="0px" y="0px"
	 width="180px" height="184.004px" viewBox="0 0 180 184.004" enable-background="new 0 0 180 184.004" xml:space="preserve">
<path fill-rule="evenodd" clip-rule="evenodd" d="M90.6,169.042c3.46,0.14,6.92,0.77,10.38,2.49c1.61,0.8,3.28,1.85,4.91,3.36
	c0.24,0.21,0.5,0.48,0.72,0.72c0.11,0.13,0.26,0.26,0.37,0.43c0.02,0.02,0.02,0.07,0.02,0.11l-0.07,0.85h-0.21
	c-0.24-0.04-0.5-0.02-0.72-0.09c-0.17-0.06-0.28-0.24-0.39-0.37c-0.63-0.69-1.29-1.28-1.92-1.78c-0.69-0.51-1.41-1.03-2.09-1.44
	c-0.43-0.26-0.87-0.5-1.3-0.72c-1.87-0.98-3.83-1.6-5.68-2.01c-1.13-0.26-2.35-0.35-3.46-0.43l-1-0.03l-3.13,0.05
	c-0.96,0.08-1.93,0.13-2.89,0.24c-1,0.11-2.09,0.26-3.07,0.45c-0.67,0.11-1.37,0.24-2.02,0.38c-0.81,0.17-1.67,0.37-2.48,0.6
	c-0.39,0.09-0.8,0.22-1.18,0.33l-0.97,0.29c-0.29,0.1-0.61,0.19-0.89,0.3c-0.98,0.33-1.98,0.72-2.94,1.2
	c-0.04,0.02-0.55,0.33-0.7,0.33l-0.89-0.09c0.04-0.31,0.06-0.61,0.09-0.91c0-0.01,0.02-0.05,0.04-0.07c1.26-0.7,2.57-1.2,3.87-1.64
	c1.05-0.35,2.16-0.69,3.26-0.96c3.4-0.85,6.81-1.41,10.21-1.57l1.52-0.06L90.6,169.042z"/>
<path fill-rule="evenodd" clip-rule="evenodd" d="M124.61,90.022c0.23,0.03,0.48,0.05,0.73,0.06c0.18,0.03,0.66,0.04,0.66,0.14
	c0,0.03-0.06,0.67-0.11,1c-0.01,0.05-0.15,0.05-0.19,0.05l-1.14-0.06l-0.98,0.01c-2.04,0.08-4.15,0.55-6.18,1.46
	c-2.05,0.9-4.12,2.19-6.16,4.15c-2.06,1.95-3.58,4.08-4.46,6.11c-0.65,1.46-1.01,3.27-1.32,4.62c-0.02,0.1-0.04,0.22-0.08,0.34
	c-0.09,0.35-0.16,0.72-0.32,1.08c-0.01,0.02-0.04,0.02-0.07,0.02c-0.03,0-0.13-0.02-0.18-0.02c-0.25-0.04-0.53-0.05-0.79-0.09
	c-0.02-0.02-0.02-0.09-0.02-0.1l0.09-0.96c0.5-1.8,0.88-3.94,1.46-5.42c0.8-2.13,2.29-4.25,4.35-6.36c1.96-2.02,4.8-3.78,6.42-4.48
	c0.86-0.37,1.77-0.72,2.63-0.96c1.24-0.34,2.52-0.55,3.78-0.6l0.32-0.01L124.61,90.022z"/>
<path fill-rule="evenodd" clip-rule="evenodd" d="M158.81,53.192v9.62h-9.62v-9.62H158.81z M159.44,52.002
	c0.26,0.01,0.51,0.27,0.54,0.47l0.02,0.07v10.91c-0.01,0.03-0.02,0.06-0.02,0.09c-0.02,0.18-0.26,0.42-0.44,0.44
	c-0.03,0-0.07,0.02-0.09,0.02h-10.91l-0.08-0.02c-0.26-0.03-0.46-0.35-0.46-0.52v-10.92c0.01-0.03,0.02-0.07,0.02-0.1
	c0.03-0.22,0.35-0.45,0.53-0.44H159.44z"/>
<path d="M41.55,12.962c-0.17,0.06-0.35,0.06-0.53-0.03L17.38,1.372c-0.33-0.17-0.47-0.59-0.32-0.95c0.16-0.36,0.55-0.52,0.89-0.36
	l23.63,11.52c0.36,0.18,0.52,0.62,0.36,0.99C41.86,12.762,41.72,12.892,41.55,12.962z"/>
<path fill-rule="evenodd" clip-rule="evenodd" d="M157.75,118.882c2.03,2.03,3.16,4.72,3.16,7.58s-1.13,5.56-3.16,7.58
	c-1.66,1.64-3.85,2.54-6.18,2.54c-2.34,0-4.53-0.9-6.19-2.54c-1.34-1.33-2.08-3.11-2.08-4.99c0-1.89,0.74-3.66,2.08-4.99
	c2.26-2.24,5.94-2.24,8.2,0c1.85,1.84,1.85,4.83,0,6.67c-1.53,1.51-4,1.51-5.53,0c-1.26-1.26-1.26-3.3,0-4.55
	c0.22-0.22,0.57-0.22,0.78,0c0.22,0.21,0.22,0.56,0,0.78c-0.82,0.82-0.83,2.16,0,2.99c1.1,1.08,2.87,1.08,3.96,0
	c1.42-1.41,1.42-3.7,0-5.11c-1.82-1.82-4.8-1.82-6.62,0c-1.14,1.12-1.76,2.62-1.76,4.21c0,1.59,0.62,3.09,1.76,4.21
	c1.44,1.43,3.36,2.22,5.39,2.22c2.04,0,3.96-0.79,5.4-2.22c1.83-1.82,2.84-4.23,2.84-6.8s-1.01-4.98-2.84-6.8
	c-2.31-2.29-5.38-3.56-8.65-3.56s-6.34,1.27-8.66,3.56c-2.93,2.92-4.54,6.79-4.54,10.9v0.09c0.02,4.07,1.63,7.87,4.54,10.7
	c6.87,6.67,17.82,7.43,25.46,1.75c0.25-0.18,0.6-0.13,0.78,0.12c0.18,0.24,0.13,0.58-0.11,0.77c-8.08,5.99-19.65,5.19-26.9-1.86
	c-3.12-3.03-4.86-7.1-4.88-11.47v-0.1c0-4.41,1.73-8.55,4.87-11.68c2.52-2.5,5.87-3.88,9.44-3.88
	C151.87,115.002,155.22,116.382,157.75,118.882z"/>
<path fill-rule="evenodd" clip-rule="evenodd" d="M100.69,28.042l5.17,8.95l-5.17,8.97H90.32l-5.18-8.97l5.19-8.95H100.69z
	 M101.04,27.002c0.08,0.01,0.18,0.03,0.26,0.1c0.04,0.02,0.08,0.06,0.11,0.12c0.28,0.44,0.54,0.91,0.8,1.36
	c1.58,2.71,3.17,5.44,4.73,8.17c0.06,0.1,0.06,0.16,0.06,0.24c0,0.04-0.01,0.15-0.04,0.21c-0.26,0.5-0.58,1-0.87,1.52
	c-0.27,0.45-0.54,0.94-0.82,1.41l-0.71,1.24c-0.2,0.33-0.4,0.67-0.59,1.01c-0.15,0.25-0.3,0.53-0.46,0.8c-0.69,1.2-1.39,2.4-2.1,3.6
	c-0.03,0.06-0.26,0.22-0.34,0.22H89.93c-0.08-0.02-0.16-0.05-0.23-0.11c-0.22-0.18-0.31-0.44-0.44-0.65l-0.48-0.82
	c-1.56-2.72-3.16-5.45-4.72-8.17c-0.08-0.14-0.05-0.16-0.05-0.26c0-0.11-0.04-0.08,0.05-0.24c0.26-0.5,0.56-0.98,0.84-1.47
	l0.82-1.41l0.71-1.22l0.58-1c0.16-0.28,0.31-0.57,0.48-0.83c0.13-0.24,0.27-0.46,0.4-0.69l0.34-0.6c0.1-0.16,0.2-0.32,0.28-0.48
	c0.35-0.6,0.69-1.21,1.04-1.79c0.03-0.07,0.09-0.12,0.15-0.16c0.06-0.06,0.17-0.09,0.25-0.1H101.04z"/>
<path fill-rule="evenodd" clip-rule="evenodd" d="M15.64,182.822l-14.48-1.82l3.2-18.1L15.64,182.822z M4.68,161.362
	c0.07,0.16,0.18,0.32,0.26,0.47l2.61,4.6c1.05,1.88,2.14,3.75,3.21,5.64c1.06,1.87,2.13,3.78,3.19,5.66
	c1.01,1.79,2.04,3.57,3.04,5.37c0.05,0.08,0.07,0.18,0.06,0.29c-0.02,0.3-0.25,0.55-0.48,0.61c-0.14,0.03-1.78-0.21-2.23-0.26
	c-2.02-0.25-4.05-0.5-6.06-0.75c-0.46-0.07-0.92-0.13-1.39-0.19c-0.4-0.05-0.81-0.11-1.21-0.15c-0.32-0.04-0.64-0.08-0.97-0.12
	c-0.27-0.04-0.57-0.07-0.83-0.1c-0.21-0.03-0.45-0.05-0.66-0.09c-0.19-0.01-0.4-0.05-0.59-0.07c-0.71-0.08-1.44-0.2-2.17-0.28
	c-0.17-0.01-0.26-0.26-0.25-0.41l1.83-10.34c0.11-0.67,0.23-1.36,0.36-2.05l0.27-1.55l0.25-1.42l0.27-1.55l0.13-0.71l0.11-0.6
	l0.14-0.83l0.13-0.72c0.01-0.33,0.2-0.73,0.52-0.8C4.39,160.972,4.56,161.102,4.68,161.362z"/>
<path fill-rule="evenodd" clip-rule="evenodd" d="M63.15,106.742l-10.53,5.97l-5.08-11.27L63.15,106.742z M46.69,100.022
	c1.51,0.5,3.01,1.02,4.52,1.54l4.67,1.58c1.54,0.52,3.11,1.04,4.67,1.58l0.85,0.29c0.28,0.08,0.57,0.19,0.86,0.29l0.54,0.18
	c0.18,0.06,0.37,0.13,0.55,0.19l0.97,0.33c0.12,0.04,0.27,0.08,0.4,0.15c0.21,0.1,0.28,0.31,0.28,0.47c0,0.45-0.49,0.57-0.87,0.79
	c-1.77,1.03-3.57,2.02-5.34,3.03c-2.06,1.16-4.11,2.34-6.16,3.49c-0.09,0.04-0.19,0.07-0.27,0.07c-0.48,0-0.58-0.5-0.77-0.93
	c-0.88-1.89-1.72-3.8-2.57-5.7c-1-2.21-2-4.42-2.98-6.64c-0.03-0.07-0.04-0.18-0.04-0.21c0-0.3,0.24-0.52,0.54-0.52
	C46.56,100.002,46.64,100.002,46.69,100.022z"/>
<path fill-rule="evenodd" clip-rule="evenodd" d="M143.15,9.742l-10.53,5.97l-5.08-11.27L143.15,9.742z M126.69,3.022
	c1.51,0.5,3.01,1.02,4.52,1.54l4.67,1.58c1.54,0.52,3.11,1.04,4.67,1.58l0.85,0.29c0.28,0.08,0.57,0.19,0.86,0.29l0.54,0.18
	c0.18,0.06,0.37,0.13,0.55,0.19l0.97,0.33c0.12,0.04,0.27,0.08,0.4,0.15c0.21,0.1,0.28,0.31,0.28,0.47c0,0.45-0.49,0.57-0.87,0.79
	c-1.77,1.03-3.57,2.02-5.34,3.03c-2.06,1.16-4.11,2.34-6.16,3.49c-0.09,0.04-0.19,0.07-0.27,0.07c-0.48,0-0.58-0.5-0.77-0.93
	c-0.88-1.89-1.72-3.8-2.57-5.7c-1-2.21-2-4.42-2.98-6.64c-0.03-0.07-0.04-0.18-0.04-0.21c0-0.3,0.24-0.52,0.54-0.52
	C126.56,3.002,126.64,3.002,126.69,3.022z"/>
<path fill-rule="evenodd" clip-rule="evenodd" d="M49.9,52.122l-1.92,6.64l-6.72,0.17l-2.15-6.59l5.35-4.16L49.9,52.122z
	 M44.73,47.082c1.03,0.75,2.07,1.5,3.11,2.25l0.57,0.41l0.52,0.38l1.86,1.35c0.16,0.12,0.21,0.29,0.21,0.44
	c0,0.01-0.01,0.09-0.02,0.14l-0.5,1.73l-0.62,2.17l-0.2,0.68l-0.17,0.58c-0.04,0.16-0.1,0.34-0.14,0.5l-0.12,0.42l-0.1,0.33
	c-0.08,0.27-0.16,0.56-0.24,0.83c-0.03,0.1-0.04,0.21-0.13,0.32c-0.11,0.14-0.24,0.18-0.35,0.21l-7.56,0.18
	c-0.28-0.01-0.43-0.35-0.49-0.52c-0.33-1.11-0.72-2.2-1.07-3.29l-0.25-0.75l-0.19-0.58l-0.2-0.63c-0.04-0.12-0.09-0.26-0.13-0.38
	c-0.12-0.4-0.52-1.56-0.52-1.64v-0.14c0.01-0.02,0.02-0.05,0.02-0.09c0.02-0.17,0.27-0.34,0.42-0.46l2.72-2.1l0.55-0.44l0.48-0.37
	c0.66-0.51,1.32-1.04,2-1.53c0.07-0.07,0.18-0.08,0.27-0.08C44.53,47.002,44.66,47.032,44.73,47.082z"/>
<path fill-rule="evenodd" clip-rule="evenodd" d="M14.5,96.502v1.25c-1.5,3.75-3.25,7.25-5,10.75h-1v-1.5l5-10.5H14.5z"/>
<path fill-rule="evenodd" clip-rule="evenodd" d="M178.75,13.002c0,2.1-1.71,3.75-3.75,3.75c-1.35,0-3-0.77-3.6-2.67
	c-0.09-0.25-0.15-0.75-0.15-0.79v-0.58c0.31-2.34,2.02-3.46,3.75-3.46C177.1,9.252,178.75,10.942,178.75,13.002z M180,13.002
	c0,2.77-2.29,5-5,5c-1.83,0-4.02-1.06-4.81-3.6c-0.06-0.21-0.19-0.82-0.19-1.11v-0.58c0.29-3.11,2.71-4.71,5-4.71
	C177.77,8.002,180,10.272,180,13.002z"/>
<path fill-rule="evenodd" clip-rule="evenodd" d="M0.3,50.012c0.3,0.08,0.66,0.07,0.85,0.24c1.23,1.25,2.28,2.65,3.12,3.97
	c1.26,1.93,2.14,3.86,2.73,5.74c0.43,1.4,0.7,2.83,0.84,4.23c0.07,0.64,0.13,1.31,0.15,1.96c0.01,0.34,0.03,3.01-0.09,3.83
	l-0.5,3.28c-0.13,0.53-0.24,1.06-0.39,1.57c-0.11,0.42-0.25,0.88-0.39,1.31c-0.16,0.48-0.34,1-0.53,1.49
	c-0.5,1.28-1.2,2.63-2.11,3.88c0,0-0.35,0.5-0.47,0.49l-0.79-0.16l0.02-0.13l0.11-0.38c0.03-0.09,0.01-0.2,0.07-0.27
	c0.35-0.49,0.74-1,1.05-1.5c0.43-0.72,0.82-1.49,1.14-2.23c0.19-0.43,0.36-0.87,0.51-1.3c0.15-0.42,0.28-0.84,0.39-1.26
	c0.12-0.46,0.25-0.95,0.36-1.43l0.13-0.86c0.15-0.81,0.29-2.03,0.3-2.1c0.25-3.14,0.11-6.35-0.81-9.6
	c-0.21-0.75-0.53-1.57-0.85-2.32c-0.26-0.62-0.58-1.3-0.93-1.93c-0.28-0.54-0.61-1.08-0.95-1.61c-0.14-0.23-0.32-0.48-0.47-0.71
	c-0.11-0.18-0.27-0.38-0.41-0.58c-0.14-0.19-0.27-0.38-0.41-0.55l-0.33-0.42c-0.5-0.64-1.1-1.28-1.63-1.86
	C0,50.782,0,50.752,0,50.722l0.2-0.72L0.3,50.012z"/>
<polygon fill-rule="evenodd" clip-rule="evenodd" points="161.05,173.852 161,173.852 161,184.002 162.33,184.002 162.33,175.102 
	169.84,175.102 169.84,175.172 171.17,175.172 171.17,166.312 180,166.312 180,165.002 169.9,165.002 169.9,165.022 169.84,165.022 
	169.84,173.792 161.05,173.792 "/>
<polygon fill-rule="evenodd" clip-rule="evenodd" points="31.74,134.372 31.76,134.342 25.39,132.002 24.87,133.012 30.16,135.002 
	28,139.212 27.96,139.192 27.42,140.242 33.07,142.702 30.24,148.192 31.39,148.762 34.81,142.132 34.79,142.132 34.81,142.092 
	29.08,139.672 31.78,134.392 "/>
<path fill-rule="evenodd" clip-rule="evenodd" d="M169.43,95.002h0.14c0.79,0,1.43,0.64,1.43,1.43v0.14c0,0.79-0.64,1.43-1.43,1.43
	h-0.14c-0.79,0-1.43-0.64-1.43-1.43v-0.14C168,95.642,168.64,95.002,169.43,95.002z"/>
<path fill-rule="evenodd" clip-rule="evenodd" d="M93.43,72.002h0.14c0.79,0,1.43,0.64,1.43,1.43v0.14c0,0.79-0.64,1.43-1.43,1.43
	h-0.14c-0.79,0-1.43-0.64-1.43-1.43v-0.14C92,72.642,92.64,72.002,93.43,72.002z"/>
<path fill-rule="evenodd" clip-rule="evenodd" d="M70.43,7.002h0.14c0.79,0,1.43,0.64,1.43,1.43v0.14c0,0.79-0.64,1.43-1.43,1.43
	h-0.14c-0.79,0-1.43-0.64-1.43-1.43v-0.14C69,7.642,69.64,7.002,70.43,7.002z"/>
<path fill-rule="evenodd" clip-rule="evenodd" d="M12.43,23.002h0.14c0.79,0,1.43,0.64,1.43,1.43v0.14c0,0.79-0.64,1.43-1.43,1.43
	h-0.14c-0.79,0-1.43-0.64-1.43-1.43v-0.14C11,23.642,11.64,23.002,12.43,23.002z"/>
<path fill-rule="evenodd" clip-rule="evenodd" d="M126.43,156.002h0.14c0.79,0,1.43,0.64,1.43,1.43v0.14c0,0.79-0.64,1.43-1.43,1.43
	h-0.14c-0.79,0-1.43-0.64-1.43-1.43v-0.14C125,156.642,125.64,156.002,126.43,156.002z"/>
<path fill-rule="evenodd" clip-rule="evenodd" d="M80.43,134.002h0.14c0.79,0,1.43,0.64,1.43,1.43v0.14c0,0.79-0.64,1.43-1.43,1.43
	h-0.14c-0.79,0-1.43-0.64-1.43-1.43v-0.14C79,134.642,79.64,134.002,80.43,134.002z"/>
<path fill-rule="evenodd" clip-rule="evenodd" d="M40.43,174.002h0.14c0.79,0,1.43,0.64,1.43,1.43v0.14c0,0.79-0.64,1.43-1.43,1.43
	h-0.14c-0.79,0-1.43-0.64-1.43-1.43v-0.14C39,174.642,39.64,174.002,40.43,174.002z"/>
</svg>
