<?xml version="1.0" encoding="utf-8"?>
<!-- Generator: Adobe Illustrator 16.0.2, SVG Export Plug-In . SVG Version: 6.00 Build 0)  -->
<!DOCTYPE svg PUBLIC "-//W3C//DTD SVG 1.1//EN" "http://www.w3.org/Graphics/SVG/1.1/DTD/svg11.dtd">
<svg version="1.1" id="圖層_1" xmlns="http://www.w3.org/2000/svg" xmlns:xlink="http://www.w3.org/1999/xlink" x="0px" y="0px"
	 width="161px" height="30px" viewBox="0 0 161 30" enable-background="new 0 0 161 30" xml:space="preserve">
<path fill-rule="evenodd" clip-rule="evenodd" d="M6.43,29.31h7.01l6.01-28.62h-5.64L9.96,23.53L5.71,0.69H0L6.43,29.31z
	 M24.66,29.31h14.92v-4.83h-9.62V16.6h8.75v-4.53h-8.75V5.45h9.4V0.69h-14.7V29.31z M50.56,12.79v-8.1h2.62
	c1.74,0,2.93,0.28,3.59,0.85s0.98,1.57,0.98,2.99c0,1.6-0.3,2.71-0.9,3.33c-0.6,0.62-1.67,0.93-3.22,0.93H50.56z M45.41,29.31h5.15
	V16.75h1.82c2.17,0,3.61,0.31,4.31,0.93c0.71,0.62,1.06,1.76,1.06,3.42v0.76l0.08,2.99c0.02,1.19,0.07,2.11,0.15,2.76
	c0.07,0.65,0.18,1.22,0.33,1.7h6.32c-0.47-0.47-0.82-1.03-1.04-1.68c-0.22-0.65-0.36-1.51-0.41-2.59l-0.15-3.79v-0.37
	c-0.11-3.61-1.43-5.75-3.96-6.42c1.33-0.18,2.33-0.81,3.02-1.88c0.68-1.08,1.02-2.54,1.02-4.4c0-2.65-0.64-4.56-1.91-5.73
	c-1.27-1.17-3.35-1.76-6.23-1.76h-9.56V29.31z M74.7,29.31h5.37V17.18l7.38-16.49H81.7l-4.27,10.76L73.1,0.69h-5.91l7.51,16.49
	V29.31z M101.42,29.31h5.38V17.18l7.38-16.49h-5.75l-4.27,10.76L99.83,0.69h-5.92l7.51,16.49V29.31z M123.72,15
	c0-4.76,0.27-7.74,0.82-8.96c0.54-1.21,1.55-1.82,3.02-1.82c1.47,0,2.48,0.61,3.02,1.82c0.55,1.22,0.82,4.2,0.82,8.96
	s-0.27,7.74-0.81,8.93c-0.54,1.2-1.53,1.79-2.99,1.79c-1.49,0-2.5-0.61-3.05-1.83C124,22.67,123.72,19.71,123.72,15z M118.27,15
	c0,3.04,0.15,5.46,0.43,7.28c0.29,1.81,0.73,3.18,1.34,4.1c0.83,1.3,1.82,2.23,2.97,2.78c1.15,0.56,2.67,0.84,4.55,0.84
	s3.4-0.28,4.55-0.84c1.15-0.55,2.15-1.48,2.99-2.78c0.59-0.95,1.03-2.32,1.32-4.14c0.28-1.81,0.43-4.23,0.43-7.24
	c0-3.02-0.14-5.44-0.42-7.25c-0.28-1.81-0.72-3.18-1.33-4.12c-0.84-1.3-1.84-2.23-2.99-2.79S129.44,0,127.56,0s-3.4,0.28-4.55,0.84
	c-1.15,0.56-2.14,1.49-2.97,2.79c-0.61,0.91-1.05,2.28-1.34,4.09C118.42,9.54,118.27,11.97,118.27,15z M143.1,0.69v19.76
	c0,3.53,0.67,6,2.02,7.42c1.34,1.42,3.65,2.13,6.92,2.13c1.74,0,3.24-0.25,4.5-0.75c1.26-0.5,2.28-1.26,3.05-2.26
	c0.51-0.67,0.87-1.45,1.08-2.33c0.22-0.89,0.33-2.29,0.33-4.21V0.69h-5.26v19.22c0,2.24-0.26,3.76-0.79,4.55
	c-0.53,0.79-1.47,1.19-2.84,1.19c-1.37,0-2.33-0.39-2.87-1.18c-0.54-0.78-0.81-2.28-0.81-4.49V0.69H143.1z"/>
</svg>
